<svg width="32" height="32" viewBox="0 0 32 32" fill="none" xmlns="http://www.w3.org/2000/svg">
<path d="M27.5648 11.6402L19.9302 10.9777L16.9489 3.95827C16.4126 2.68058 14.5828 2.68058 14.0465 3.95827L11.0652 10.9934L3.4464 11.6402C2.0583 11.7506 1.49043 13.4857 2.54729 14.4006L8.33632 19.4167L6.60119 26.862C6.28571 28.2186 7.75269 29.2912 8.95151 28.5656L15.4977 24.6221L22.0439 28.5814C23.2427 29.307 24.7097 28.2344 24.3942 26.8778L22.6591 19.4167L28.4481 14.4006C29.5049 13.4857 28.9529 11.7506 27.5648 11.6402ZM15.4977 21.6724L9.56669 25.2531L11.1441 18.5018L5.90714 13.9589L12.8161 13.3595L15.4977 7.00264L18.195 13.3753L25.104 13.9747L19.8671 18.5176L21.4445 25.2689L15.4977 21.6724Z" fill="#11DABF"/>
</svg>
