<svg version="1.0" xmlns="http://www.w3.org/2000/svg"
 width="512.000000pt" height="512.000000pt" viewBox="0 0 512.000000 512.000000"
 preserveAspectRatio="xMidYMid meet">

<g transform="translate(0.000000,512.000000) scale(0.100000,-0.100000)"
fill="#000000" stroke="none">
<path d="M925 3586 c-130 -41 -224 -142 -261 -281 -20 -73 -20 -1437 0 -1510
27 -104 82 -181 164 -233 103 -66 -6 -62 1732 -62 1738 0 1629 -4 1732 62 63
40 105 89 142 168 l31 65 0 756 0 755 -38 76 c-43 88 -102 146 -187 187 l-55
26 -1610 2 c-1278 1 -1618 -1 -1650 -11z m648 -584 c14 -13 27 -36 30 -50 7
-34 -15 -87 -41 -101 -12 -6 -76 -11 -150 -11 -126 0 -130 1 -156 26 -48 49
-30 132 34 157 8 4 70 5 137 4 112 -2 123 -4 146 -25z m544 17 c39 -13 69 -66
59 -103 -4 -15 -18 -39 -31 -52 -23 -23 -30 -24 -155 -24 l-132 0 -29 29 c-47
47 -34 127 25 151 30 12 227 12 263 -1z m584 -4 c55 -29 65 -100 20 -146 l-29
-29 -132 0 -132 0 -29 29 c-46 47 -38 115 19 145 39 22 242 22 283 1z m595
-18 c34 -40 32 -90 -5 -128 l-29 -29 -130 0 c-114 0 -132 2 -155 20 -32 25
-43 72 -27 111 22 51 50 59 193 57 127 -3 129 -3 153 -31z m570 0 c33 -39 33
-99 -1 -132 -23 -24 -29 -25 -160 -25 -131 0 -137 1 -160 25 -34 33 -35 102
-2 132 33 31 42 32 175 30 122 -2 124 -2 148 -30z m-2300 -373 c15 -11 31 -33
35 -49 10 -34 -11 -89 -39 -104 -12 -6 -77 -11 -152 -11 -126 0 -132 1 -155
25 -17 17 -25 35 -25 60 0 85 40 106 197 103 95 -3 116 -6 139 -24z m585 -12
c37 -41 38 -80 3 -121 l-26 -31 -139 0 c-138 0 -140 0 -164 26 -17 18 -25 39
-25 61 0 84 41 104 203 101 l119 -3 29 -33z m517 32 c80 -16 108 -109 50 -164
-20 -18 -35 -20 -159 -20 l-137 0 -26 31 c-42 50 -29 115 28 143 32 16 183 22
244 10z m1167 -8 c40 -17 55 -42 55 -91 0 -25 -8 -43 -25 -60 l-24 -25 -420 0
-420 0 -28 24 c-52 45 -26 146 41 159 11 2 193 5 404 6 310 1 389 -2 417 -13z
m-2273 -387 c26 -14 48 -67 41 -101 -3 -14 -16 -37 -30 -50 -23 -22 -32 -23
-160 -23 l-135 0 -24 28 c-33 39 -33 99 1 132 23 24 29 25 155 25 75 0 140 -5
152 -11z m1733 -15 c27 -29 33 -80 14 -116 -25 -47 -33 -48 -749 -48 -716 0
-724 1 -749 48 -20 37 -13 87 15 116 l27 26 709 0 709 0 24 -26z m570 1 c34
-33 35 -96 1 -130 -31 -31 -74 -38 -197 -33 -96 4 -103 5 -125 31 -33 39 -33
99 1 132 23 24 29 25 160 25 131 0 137 -1 160 -25z"/>
</g>
</svg>
