<?xml version="1.0" encoding="UTF-8"?>
<!DOCTYPE svg PUBLIC "-//W3C//DTD SVG 1.1//EN" "http://www.w3.org/Graphics/SVG/1.1/DTD/svg11.dtd">
<svg xmlns="http://www.w3.org/2000/svg" version="1.1" width="24px" height="24px" style="shape-rendering:geometricPrecision; text-rendering:geometricPrecision; image-rendering:optimizeQuality; fill-rule:evenodd; clip-rule:evenodd" xmlns:xlink="http://www.w3.org/1999/xlink">
<g><path style="opacity:0.965" fill="#7bcadd" d="M 6.5,-0.5 C 8.16667,-0.5 9.83333,-0.5 11.5,-0.5C 11.5,0.5 11.5,1.5 11.5,2.5C 10.1667,3.5 10.1667,4.5 11.5,5.5C 11.4431,6.60895 11.1098,7.60895 10.5,8.5C 10.3284,9.49162 10.6618,10.1583 11.5,10.5C 11.5,11.1667 11.5,11.8333 11.5,12.5C -0.5,13.5 -0.5,14.5 11.5,15.5C 11.5,17.5 11.5,19.5 11.5,21.5C 11.5,22.1667 11.5,22.8333 11.5,23.5C 9.83333,23.5 8.16667,23.5 6.5,23.5C 3.83333,21.5 1.5,19.1667 -0.5,16.5C -0.5,13.1667 -0.5,9.83333 -0.5,6.5C 0.271873,5.30646 1.27187,4.30646 2.5,3.5C 3.52743,1.80584 4.86076,0.472504 6.5,-0.5 Z"/></g>
<g><path style="opacity:0.978" fill="#51b3da" d="M 11.5,-0.5 C 13.1667,-0.5 14.8333,-0.5 16.5,-0.5C 17.6935,0.271873 18.6935,1.27187 19.5,2.5C 16.8333,2.5 14.1667,2.5 11.5,2.5C 11.5,1.5 11.5,0.5 11.5,-0.5 Z"/></g>
<g><path style="opacity:1" fill="#4a6c80" d="M 2.5,3.5 C 4.33702,3.63945 4.67036,4.30612 3.5,5.5C 2.70245,5.04311 2.36912,4.37644 2.5,3.5 Z"/></g>
<g><path style="opacity:1" fill="#496b7f" d="M 6.5,3.5 C 8.33702,3.63945 8.67036,4.30612 7.5,5.5C 6.70245,5.04311 6.36912,4.37644 6.5,3.5 Z"/></g>
<g><path style="opacity:1" fill="#385c73" d="M 11.5,2.5 C 14.1667,2.5 16.8333,2.5 19.5,2.5C 20.1667,2.5 20.5,2.83333 20.5,3.5C 18.0122,5.38784 15.0122,6.0545 11.5,5.5C 10.1667,4.5 10.1667,3.5 11.5,2.5 Z"/></g>
<g><path style="opacity:0.984" fill="#4fafd5" d="M 20.5,3.5 C 21.7281,4.30646 22.7281,5.30646 23.5,6.5C 23.5,9.83333 23.5,13.1667 23.5,16.5C 22.1149,18.8835 20.1149,20.5501 17.5,21.5C 15.5,21.5 13.5,21.5 11.5,21.5C 11.5,19.5 11.5,17.5 11.5,15.5C 12.8333,14.5 12.8333,13.5 11.5,12.5C 11.5,11.8333 11.5,11.1667 11.5,10.5C 12.7574,9.3774 12.4241,8.71073 10.5,8.5C 11.1098,7.60895 11.4431,6.60895 11.5,5.5C 15.0122,6.0545 18.0122,5.38784 20.5,3.5 Z"/></g>
<g><path style="opacity:1" fill="#405c71" d="M 2.5,9.5 C 3.07683,8.22671 3.7435,8.22671 4.5,9.5C 4.03017,10.463 3.3635,10.463 2.5,9.5 Z"/></g>
<g><path style="opacity:1" fill="#3f687f" d="M 10.5,8.5 C 12.4241,8.71073 12.7574,9.3774 11.5,10.5C 10.6618,10.1583 10.3284,9.49162 10.5,8.5 Z"/></g>
<g><path style="opacity:1" fill="#34586e" d="M 18.5,8.5 C 21.0009,8.51092 21.1676,9.17759 19,10.5C 18.5357,9.90558 18.369,9.23891 18.5,8.5 Z"/></g>
<g><path style="opacity:1" fill="#436176" d="M 11.5,12.5 C 12.8333,13.5 12.8333,14.5 11.5,15.5C -0.5,14.5 -0.5,13.5 11.5,12.5 Z"/></g>
<g><path style="opacity:1" fill="#34576e" d="M 18.5,12.5 C 20.7602,13.2376 20.9269,14.2376 19,15.5C 18.5172,14.552 18.3505,13.552 18.5,12.5 Z"/></g>
<g><path style="opacity:1" fill="#3a6881" d="M 14.5,13.5 C 16.337,13.6395 16.6704,14.3061 15.5,15.5C 14.7025,15.0431 14.3691,14.3764 14.5,13.5 Z"/></g>
<g><path style="opacity:0.888" fill="#238cc5" d="M 11.5,21.5 C 13.5,21.5 15.5,21.5 17.5,21.5C 17.1667,22.1667 16.8333,22.8333 16.5,23.5C 14.8333,23.5 13.1667,23.5 11.5,23.5C 11.5,22.8333 11.5,22.1667 11.5,21.5 Z"/></g>
</svg>
