<svg width="32" height="32" viewBox="0 0 32 32" fill="none" xmlns="http://www.w3.org/2000/svg">
<path opacity="0.4" d="M21.7398 27.6668C18.4731 27.6668 15.8131 25.0184 15.8131 21.7401C15.8131 18.4734 18.4614 15.8134 21.7398 15.8134C25.0064 15.8134 27.6664 18.4618 27.6664 21.7401C27.6664 25.0184 25.0181 27.6668 21.7398 27.6668Z" fill="#11DABF"/>
<path opacity="0.4" d="M7.85665 4.33334H12.43C14.845 4.33334 16.0116 5.5 15.9533 7.85666V12.43C16.0116 14.845 14.845 16.0117 12.43 15.9533H7.85665C5.49998 16 4.33331 14.8333 4.33331 12.4183V7.84502C4.33331 5.50002 5.49998 4.33334 7.85665 4.33334Z" fill="#11DABF"/>
<path d="M12.5113 11.6366C12.1496 11.6366 11.8113 11.4966 11.4963 11.2632C11.7879 10.7966 11.998 10.2716 12.103 9.69991H12.4996C12.9779 9.69991 13.3746 9.30324 13.3746 8.82491C13.3746 8.34657 12.9779 7.94991 12.4996 7.94991H11.3446C11.3329 7.94991 11.3213 7.94991 11.3213 7.94991H11.298H10.9946C10.948 7.50657 10.5863 7.15659 10.1313 7.15659C9.67629 7.15659 9.31462 7.50657 9.26795 7.94991H7.76296C7.28463 7.94991 6.88796 8.34657 6.88796 8.82491C6.88796 9.30324 7.28463 9.69991 7.76296 9.69991H10.2946C9.94463 10.8199 8.94128 11.6366 7.75128 11.6366C7.27295 11.6366 6.87628 12.0333 6.87628 12.5116C6.87628 12.9899 7.27295 13.3866 7.75128 13.3866C8.69628 13.3866 9.57129 13.0716 10.2946 12.5466C10.9363 13.0833 11.7063 13.3866 12.4996 13.3866C12.9779 13.3866 13.3746 12.9899 13.3746 12.5116C13.3746 12.0333 12.9896 11.6366 12.5113 11.6366Z" fill="#11DABF"/>
<path d="M12.5 28.5417C7.51831 28.5417 3.45831 24.4817 3.45831 19.5C3.45831 19.0217 3.85498 18.625 4.33331 18.625C4.81165 18.625 5.20831 19.0217 5.20831 19.5C5.20831 22.9533 7.61165 25.8467 10.8433 26.605L10.5283 26.08C10.2833 25.66 10.4117 25.1233 10.8317 24.8783C11.24 24.6333 11.7883 24.7617 12.0333 25.1817L13.2583 27.2233C13.4216 27.4917 13.4216 27.83 13.27 28.0983C13.1066 28.3667 12.815 28.5417 12.5 28.5417Z" fill="#11DABF"/>
<path d="M27.6672 13.375C27.1888 13.375 26.7922 12.9783 26.7922 12.5C26.7922 9.04668 24.3888 6.15334 21.1572 5.39501L21.4722 5.92C21.7172 6.34 21.5888 6.87669 21.1688 7.12169C20.7605 7.36669 20.2122 7.23836 19.9672 6.81834L18.7422 4.77668C18.5788 4.50834 18.5788 4.17001 18.7305 3.90168C18.8822 3.62168 19.1738 3.45834 19.4888 3.45834C24.4705 3.45834 28.5305 7.51834 28.5305 12.5C28.5422 12.9783 28.1455 13.375 27.6672 13.375Z" fill="#11DABF"/>
<path d="M25.0179 23.3851L22.5212 18.4035C22.3695 18.1118 22.0662 17.9135 21.7395 17.9135C21.4129 17.9135 21.1095 18.1001 20.9579 18.3918L18.4612 23.3735C18.2395 23.8051 18.4145 24.3301 18.8579 24.5518C18.9862 24.6101 19.1145 24.6451 19.2429 24.6451C19.5579 24.6451 19.8729 24.4701 20.0245 24.1668L20.2229 23.7701H23.2445L23.4429 24.1668C23.6645 24.5985 24.1895 24.7735 24.6212 24.5635C25.0645 24.3418 25.2395 23.8168 25.0179 23.3851ZM21.1095 22.0201L21.7511 20.7485L22.3929 22.0201H21.1095Z" fill="#11DABF"/>
</svg>
